<svg width="30" height="30" viewBox="0 0 30 30" fill="none" xmlns="http://www.w3.org/2000/svg">
<path d="M15.8747 0L30 16.3249L14.1253 30L1.5105e-06 13.6751L15.8747 0Z" fill="#00FFD1"/>
<g clip-path="url(#clip0)">
<path d="M11.0667 10.7979L11.6509 18.2707C11.6596 18.3829 11.7356 18.4786 11.8429 18.5126L14.9165 19.4871C14.9709 19.5043 15.0292 19.5043 15.0836 19.4871L18.1572 18.5126C18.2645 18.4786 18.3405 18.3829 18.3493 18.2707L18.9334 10.7979C18.9459 10.6373 18.819 10.5 18.6578 10.5H11.3423C11.1812 10.5 11.0542 10.6373 11.0667 10.7979ZM17.4354 13.1165H13.6286L13.7435 14.1759H17.3526L17.1165 17.1962L15.0001 17.8672L12.8836 17.1962L12.7602 15.6183H13.8711V16.3922L15.0298 16.7032L16.1814 16.3922L16.2708 15.1587H12.7243L12.4889 12.1464H17.5113L17.4354 13.1165Z" fill="#FC490B"/>
</g>
<defs>
<clipPath id="clip0">
<rect width="9" height="9" fill="white" transform="translate(10.5 10.5)"/>
</clipPath>
</defs>
</svg>
