<?xml version="1.0" encoding="utf-8"?>
<!-- Generator: Adobe Illustrator 23.0.2, SVG Export Plug-In . SVG Version: 6.00 Build 0)  -->
<svg version="1.1" id="ade8c9af-7e2e-4eda-b5c8-b06129257226"
	 xmlns="http://www.w3.org/2000/svg" xmlns:xlink="http://www.w3.org/1999/xlink" x="0px" y="0px" viewBox="0 0 1076.1 755.2"
	 style="enable-background:new 0 0 1076.1 755.2;" xml:space="preserve">
<style type="text/css">
	.st0{fill:#2F2E41;}
	.st1{opacity:0.1;enable-background:new    ;}
	.st2{fill:#FBC99D;}
	.st3{fill:#EEEEEE;}
	.st4{fill:#F2F2F2;}
</style>
<title>web_developer</title>
<path class="st0" d="M413.7,466.6h36.8l90.8-35.5c0,0,64.5-26.3,59.2,23.7s-14.5,117.1-14.5,117.1s-28.9-13.2-44.7-9.2
	s-5.3-80.3-5.3-80.3s-128.9,61.8-140.8,53.9c-11.8-7.9-14.5-63.2-14.5-63.2L413.7,466.6z"/>
<path class="st1" d="M413.7,466.6h36.8l90.8-35.5c0,0,64.5-26.3,59.2,23.7s-14.5,117.1-14.5,117.1s-28.9-13.2-44.7-9.2
	s-5.3-80.3-5.3-80.3s-128.9,61.8-140.8,53.9c-11.8-7.9-14.5-63.2-14.5-63.2L413.7,466.6z"/>
<path class="st2" d="M471.8,351.2l44.6,64.1l103.9,86.8c0,0,96.1,22.4,82.9,38.2s-93.4-15.8-93.4-15.8S490,437.6,486.1,431.1
	s-47.4-68.4-47.4-68.4L471.8,351.2z"/>
<path class="st3" d="M445.3,299.5l28.9,56.6c0,0-6.6,27.6-17.1,30.3c-10.5,2.6-55.3-34.2-55.3-34.2L445.3,299.5z"/>
<path class="st0" d="M807,472.6c0.1,0.4,0.1,0.8,0,1.2L768.2,595c-0.4,1.2-1.6,1.8-2.8,1.4c-0.8-0.3-1.4-1-1.5-1.8l-5.4-47.2
	c0-0.3,0-0.6,0.1-0.9"/>
<polygon class="st4" points="795.3,440.3 803.2,470.5 769,581.1 761.1,546.8 "/>
<path class="st0" d="M622.9,604.7c1.3,3.9,136.8-1.3,138.2-2.6c1.1-1.6,2.1-3.4,2.9-5.3c1.2-2.6,2.4-5.3,2.4-5.3l-5.3-42.6
	l-134.2-4.8c0,0-3.4,36.1-4,52.6C622.7,601,622.7,604,622.9,604.7z"/>
<polygon class="st1" points="744,554.7 746.6,591.6 687.4,591.6 687.4,554.7 "/>
<polygon class="st1" points="667.7,566.6 668,566.5 666.4,582.4 633.5,582.4 633.5,566.6 "/>
<path class="st1" d="M622.9,604.7c1.3,3.9,136.8-1.3,138.2-2.6c1.1-1.6,2.1-3.4,2.9-5.3H622.8C622.7,601,622.7,604,622.9,604.7z"/>
<circle class="st2" cx="465" cy="221.9" r="59.2"/>
<path class="st2" d="M461.1,274.5c0,0-19.7,34.2-23.7,52.6s-59.2-36.8-59.2-36.8l-7.2-19.1c0,0,52-24.3,48-44.1
	S461.1,274.5,461.1,274.5z"/>
<path class="st2" d="M471.6,377.1l53.9,71.1l128.9,96.1c0,0,93.4,19.7,72.4,34.2s-81.6-13.2-81.6-13.2S515,495.5,487.4,466.6
	S408.5,389,408.5,389L471.6,377.1z"/>
<path class="st0" d="M399.3,487.6l15.8,25l94.2-29.6c20.7-6.5,43.3-4.1,61.7,7.4c16.4,10.4,27,26.8,3.3,51.2
	c-47.4,48.7-78.9,22.4-78.9,22.4s-159.2,75-185.5,38.2s-27.6-55.3-27.6-55.3S383.5,483.7,399.3,487.6z"/>
<path class="st3" d="M596.6,574.5c0,0,42.1,27.6-7.9,40.8c-50,13.2-86.8-5.3-86.8-5.3s-43.4,0-43.4-22.4s14.5-25,14.5-25l44.7,6.6
	C517.7,569.2,571.6,554.7,596.6,574.5z"/>
<path class="st0" d="M513.6,207c4,1.8,8,3.9,12.4,4.4s9.4-1,11.4-4.9c1.1-2.1,1.2-4.6,1.3-7c0.2-7.2-0.4-15-4.9-20.6
	c-2.9-3.6-7.2-5.8-10.2-9.3c-2.2-2.5-3.6-5.5-5.1-8.4c-5.9-11-14.6-21.6-26.6-24.8c-5-1.3-10.3-1.3-15.5-1.2l-30.4,0.4
	c-4.9,0.1-9.9,0.2-14.6,1.6c-9.8,3-16.9,11.2-23.4,19.1c-4.9,5.9-9.8,11.8-13.4,18.5c-5.3,9.8-7.9,20.8-7.7,31.9
	c0,2.9,0.3,5.7,1.1,8.4c0.9,2.5,2,5,3.3,7.3c5.7,11.2,9.1,25.2,2.7,36c11.2-4.6,22.2-10.5,29.5-20.1c3.3-4.3,5.9-9.3,10.3-12.4
	s11.5-3.4,14.3,1.2c1,1.9,1.5,3.9,1.5,6c0.2,3.4,0.2,7,1.7,10.2s4.9,5.7,8.3,4.7c5.7-1.6,5.2-10.4,9.6-14.4c3.4-3,8.5-2.5,12.8-3.8
	c5-1.6,8.8-5.9,10.9-10.8c1.6-3.7,1.6-13.2,4.7-15.2C501.2,201.4,510,205.4,513.6,207z"/>
<path class="st3" d="M366.3,265c2.7-0.7,5.5-0.7,8.1,0c8.4,2.3,27.4,8.3,31.4,17.4c5.3,11.8,23.7,30.3,23.7,30.3s25,25,19.7,42.1
	c-5.3,17.1-25,36.8-25,36.8s5.3,81.6-21.1,102.6c-26.3,21.1-36.8,6.6-36.8,26.3S284.8,602.1,269,564c0,0,7.9-71.1,5.3-96.1
	C271.7,443.3,275.5,289.5,366.3,265z"/>
<path class="st3" d="M408.5,298.2c0,0,80.3,59.2,65.8,84.2c0,0-48.7,23.7-59.2,22.4s-51.3-47.4-61.8-51.3S337.4,278.4,408.5,298.2z"
	/>
</svg>
